<svg preserveAspectRatio="none" overflow="visible" style="display: block;" width="395.584" height="403.784" viewBox="0 0 395.584 403.784" fill="none" xmlns="http://www.w3.org/2000/svg">
<path id="Vector" d="M383.363 403.046L385.859 389.323L387.884 375.816L389.813 359.798L391.44 342.179L392.72 322.957L393.561 303.736L394.036 282.913L394.084 262.09L393.695 241.267L392.904 222.045L391.75 204.426L390.274 188.408L388.526 173.992L386.574 161.178L384.178 148.363L381.652 137.151L378.659 125.939L375.662 116.328L372.203 106.717L368.239 97.1623L364.418 89.0976L360.135 81.0887L355.284 73.0798L350.62 66.2337L345.814 59.9008L340.721 53.8584L334.602 47.3603L327.891 41.0442L321.788 35.919L315.381 31.0921L308.761 26.6282L302.566 22.8756L294.557 18.5788L286.549 14.8439L278.54 11.6266L270.531 8.89201L262.522 6.61039L254.513 4.76652L246.504 3.34416L238.495 2.33354L230.486 1.72123L222.477 1.50041L214.468 1.65739L204.858 2.32731L195.247 3.49125L185.636 5.11869L175.046 7.40678L166.415 9.60966L155.203 12.8924L142.388 17.1601L129.574 21.919L116.76 27.136L103.468 33.0353L91.1315 38.9792L78.3172 45.7096L66.9394 52.2566L56.7849 58.6637L47.8834 64.8268L39.8745 70.9239L33.4522 76.2834L26.4904 82.6905L20.2556 89.0976L14.6986 95.5047L9.76955 101.912L5.42311 108.319L1.4318 115.057M1.4318 272.526L6.17653 287.718L11.6364 303.736L17.5454 319.754L23.9096 335.772L30.7569 351.789L37.374 366.205L44.6798 381.013L51.2655 393.436L56.6898 403.046" stroke="#EFEEEC" stroke-width="3"/>
</svg>
