<svg preserveAspectRatio="none" overflow="visible" style="display: block;" width="1441.44" height="1045.23" viewBox="0 0 1441.44 1045.23" fill="none" xmlns="http://www.w3.org/2000/svg">
<path id="Vector" d="M739.061 1044.36L738.984 1043.66L738.884 1042.76L738.7 1041.16L738.511 1039.56L738.315 1037.96L738.114 1036.35L737.907 1034.75L737.694 1033.15L737.475 1031.55L737.382 1030.88L737.25 1029.95L737.019 1028.34L736.782 1026.74L736.54 1025.14L736.291 1023.54L736.037 1021.94L735.78 1020.35L735.777 1020.34L735.511 1018.73L735.239 1017.13L734.962 1015.53L734.679 1013.93L734.39 1012.33L734.178 1011.17L734.095 1010.73L733.795 1009.12L733.488 1007.52L733.176 1005.92L732.859 1004.32L732.577 1002.92L732.536 1002.72L732.206 1001.11L731.871 999.513L731.53 997.911L731.184 996.309L730.975 995.354L730.832 994.707L730.474 993.105L730.111 991.504L729.742 989.902L729.373 988.325L729.367 988.3L728.987 986.698L728.601 985.097L728.209 983.495L727.812 981.893L727.771 981.731L727.409 980.291L727.001 978.689L726.587 977.088L726.17 975.495L726.167 975.486L725.742 973.884L725.312 972.282L724.876 970.681L724.568 969.559L724.435 969.079L723.989 967.477L723.537 965.875L723.08 964.273L722.966 963.877L722.618 962.672L722.151 961.07L721.678 959.468L721.364 958.412L721.201 957.866L720.719 956.265L720.232 954.663L719.762 953.134L719.74 953.061L719.244 951.459L718.743 949.857L718.237 948.256L718.161 948.014L717.728 946.654L717.214 945.052L716.695 943.45L716.559 943.032L716.173 941.849L715.647 940.247L715.117 938.645L714.957 938.165L714.583 937.043L714.047 935.441L713.506 933.84L713.355 933.395L712.963 932.238L712.416 930.636L711.867 929.034L711.754 928.706L711.315 927.433L710.761 925.831L710.204 924.229L710.152 924.08L709.646 922.627L709.085 921.025L708.55 919.504L708.522 919.424L707.959 917.822L707.394 916.22L706.948 914.96L706.827 914.618L706.261 913.017L705.694 911.415L705.346 910.436L705.126 909.813L704.559 908.211L703.99 906.609L703.745 905.917L703.423 905.008L702.857 903.406L702.29 901.804L702.143 901.389L701.725 900.202L701.162 898.6L700.599 896.999L700.541 896.835L700.039 895.397L699.481 893.795L698.939 892.239L698.924 892.193L698.372 890.592L697.821 888.99L697.338 887.582L697.272 887.388L696.728 885.786L696.187 884.184L695.736 882.846L695.648 882.583L695.115 880.981L694.585 879.379L694.134 878.009L694.058 877.777L693.539 876.176L693.022 874.574L692.532 873.046L692.509 872.972L692.004 871.37L691.502 869.768L691.004 868.167L690.93 867.926L690.515 866.565L690.031 864.963L689.55 863.361L689.329 862.614L689.077 861.76L688.612 860.158L688.15 858.556L687.727 857.07L687.694 856.954L687.248 855.352L686.807 853.751L686.372 852.149L686.125 851.231L685.944 850.547L685.524 848.945L685.111 847.344L684.703 845.742L684.523 845.028L684.303 844.14L683.912 842.538L683.528 840.936L683.149 839.335L682.922 838.357L682.778 837.733L682.417 836.131L682.063 834.529L681.715 832.928L681.373 831.326L681.32 831.07L681.043 829.724L680.719 828.122L680.403 826.52L680.093 824.919L679.791 823.317L679.718 822.923L679.498 821.715L679.214 820.113L678.937 818.512L678.667 816.91L678.404 815.308L678.149 813.706L678.116 813.495L677.904 812.104L677.667 810.503L677.437 808.901L677.215 807.299L677 805.697L676.793 804.096L676.593 802.494L676.514 801.84L676.402 800.892L676.221 799.29L676.047 797.688L675.88 796.087L675.721 794.485L675.57 792.883L675.426 791.281L675.29 789.679L675.162 788.078L675.041 786.476L674.928 784.874L674.913 784.633L674.825 783.272L674.73 781.671L674.642 780.069L674.562 778.467L674.49 776.865L674.426 775.263L674.37 773.662L674.321 772.06L674.281 770.458L674.248 768.856L674.223 767.255L674.207 765.653L674.198 764.051L674.197 762.449L674.204 760.847L674.22 759.246L674.243 757.644L674.275 756.042L674.315 754.44L674.362 752.839L674.418 751.237L674.483 749.635L674.555 748.033L674.636 746.431L674.725 744.83L674.822 743.228L674.913 741.86L674.928 741.626L675.045 740.024L675.169 738.423L675.303 736.821L675.445 735.219L675.596 733.617L675.755 732.015L675.923 730.414L676.1 728.812L676.285 727.21L676.48 725.608L676.514 725.335L676.686 724.007L676.903 722.405L677.128 720.803L677.363 719.201L677.606 717.599L677.859 715.998L678.116 714.428L678.122 714.396L678.399 712.794L678.685 711.192L678.981 709.591L679.287 707.989L679.602 706.387L679.718 705.814L679.931 704.785L680.272 703.183L680.624 701.582L680.985 699.98L681.32 698.537L681.357 698.378L681.747 696.776L682.147 695.174L682.557 693.573L682.922 692.183L682.978 691.971L683.419 690.369L683.87 688.767L684.331 687.166L684.523 686.513L684.809 685.564L685.303 683.962L685.807 682.36L686.125 681.372L686.327 680.758L686.866 679.157L687.415 677.555L687.727 676.664L687.982 675.953L688.567 674.351L689.163 672.75L689.329 672.313L689.782 671.148L690.416 669.546L690.93 668.268L691.064 667.944L691.737 666.342L692.422 664.741L692.532 664.487L693.133 663.139L693.858 661.537L694.134 660.937L694.606 659.935L695.374 658.334L695.736 657.589L696.164 656.732L696.975 655.13L697.338 654.423L697.809 653.528L698.665 651.926L698.939 651.42L699.549 650.325L700.451 648.723L700.541 648.564L701.386 647.121L702.143 645.845L702.341 645.519L703.328 643.918L703.745 643.248L704.341 642.316L705.346 640.762L705.378 640.714L706.454 639.112L706.948 638.383L707.557 637.51L708.55 636.099L708.688 635.909L709.856 634.307L710.152 633.905L711.06 632.705L711.754 631.795L712.296 631.103L713.355 629.762L713.567 629.502L714.877 627.9L714.957 627.802L716.23 626.298L716.559 625.912L717.623 624.696L718.161 624.085L719.057 623.094L719.762 622.318L720.535 621.493L721.364 620.609L722.058 619.891L722.966 618.953L723.628 618.289L724.568 617.348L725.247 616.687L726.17 615.791L726.917 615.086L727.771 614.28L728.64 613.484L729.373 612.812L730.417 611.882L730.975 611.385L732.25 610.28L732.577 609.997L734.139 608.678L734.178 608.645L735.78 607.33L736.097 607.077L737.382 606.047L738.117 605.475L738.984 604.797L740.197 603.873L740.586 603.576L742.187 602.383L742.343 602.271L743.789 601.22L744.566 600.67L745.391 600.081L746.848 599.068L746.993 598.966L748.595 597.876L749.212 597.466L750.196 596.807L751.637 595.864L751.798 595.758L753.4 594.73L754.146 594.262L755.002 593.719L756.603 592.726L756.712 592.661L758.205 591.749L759.359 591.059L759.807 590.786L761.409 589.837L762.066 589.457L763.011 588.901L764.612 587.974L764.824 587.855L766.214 587.058L767.636 586.253L767.816 586.15L769.418 585.248L770.491 584.652L771.019 584.351L772.621 583.457L773.362 583.05L774.223 582.564L775.825 581.67L776.23 581.448L777.427 580.772L779.028 579.868L779.067 579.846L780.63 578.953L781.866 578.245L782.232 578.026L783.834 577.08L784.574 576.643L785.435 576.111L787.037 575.113L787.153 575.041L788.639 574.075L789.6 573.439L790.241 572.991L791.843 571.847L791.855 571.837L793.444 570.623L793.939 570.236L795.046 569.301L795.815 568.634L796.648 567.849L797.49 567.032L798.25 566.224L798.973 565.43L799.851 564.361L800.275 563.829L801.409 562.227L801.453 562.159L802.409 560.625L803.055 559.431L803.268 559.023L804.021 557.421L804.657 555.839L804.664 555.82L805.232 554.218L805.72 552.616L806.139 551.014L806.259 550.501L806.505 549.413L806.822 547.811L807.094 546.209L807.327 544.607L807.527 543.005L807.697 541.404L807.84 539.802L807.86 539.547L807.963 538.2L808.064 536.598L808.148 534.997L808.215 533.395L808.267 531.793L808.306 530.191L808.333 528.589L808.349 526.988L808.356 525.386L808.354 523.784L808.345 522.182L808.328 520.581L808.305 518.979L808.276 517.377L808.241 515.775L808.202 514.173L808.158 512.572L808.11 510.97L808.059 509.368L808.004 507.766L807.946 506.165L807.885 504.563L807.86 503.939L807.822 502.961L807.757 501.359L807.689 499.757L807.62 498.156L807.548 496.554L807.475 494.952L807.401 493.35L807.325 491.749L807.247 490.147L807.169 488.545L807.09 486.943L807.009 485.341L806.928 483.74L806.846 482.138L806.764 480.536L806.68 478.934L806.597 477.333L806.512 475.731L806.427 474.129L806.342 472.527L806.259 470.961L806.257 470.925L806.171 469.324L806.085 467.722L805.999 466.12L805.912 464.518L805.825 462.916L805.739 461.315L805.652 459.713L805.565 458.111L805.477 456.509L805.39 454.908L805.303 453.306L805.216 451.704L805.128 450.102L805.041 448.5L804.954 446.899L804.867 445.297L804.779 443.695L804.692 442.093L804.657 441.449L804.605 440.492L804.518 438.89L804.43 437.288L804.343 435.686L804.256 434.084L804.169 432.483L804.082 430.881L803.995 429.279L803.908 427.677L803.821 426.076L803.734 424.474L803.647 422.872L803.559 421.27L803.472 419.668L803.385 418.067L803.298 416.465L803.211 414.863L803.123 413.261L803.055 412.013L803.036 411.66L802.948 410.058L802.86 408.456L802.772 406.854L802.684 405.252L802.596 403.651L802.507 402.049L802.419 400.447L802.33 398.845L802.24 397.244L802.151 395.642L802.061 394.04L801.971 392.438L801.88 390.836L801.789 389.235L801.698 387.633L801.606 386.031L801.514 384.429L801.453 383.383L801.421 382.828L801.328 381.226L801.234 379.624L801.139 378.022L801.044 376.42L800.948 374.819L800.851 373.217L800.754 371.615L800.656 370.013L800.557 368.412L800.457 366.81L800.357 365.208L800.256 363.606L800.153 362.004L800.05 360.403L799.945 358.801L799.851 357.373L799.84 357.199L799.733 355.597L799.625 353.995L799.516 352.394L799.406 350.792L799.294 349.19L799.181 347.588L799.066 345.987L798.951 344.385L798.833 342.783L798.715 341.181L798.594 339.579L798.472 337.978L798.348 336.376L798.25 335.118L798.223 334.774L798.095 333.172L797.966 331.571L797.834 329.969L797.701 328.367L797.565 326.765L797.428 325.163L797.288 323.562L797.146 321.96L797.002 320.358L796.855 318.756L796.707 317.155L796.648 316.535L796.555 315.553L796.4 313.951L796.243 312.349L796.084 310.747L795.921 309.146L795.756 307.544L795.587 305.942L795.416 304.34L795.242 302.739L795.064 301.137L795.046 300.976L794.883 299.535L794.698 297.933L794.51 296.331L794.319 294.73L794.124 293.128L793.925 291.526L793.723 289.924L793.516 288.323L793.444 287.775L793.306 286.721L793.091 285.119L792.871 283.517L792.648 281.915L792.42 280.314L792.188 278.712L791.952 277.11L791.843 276.385L791.71 275.508L791.463 273.907L791.212 272.305L790.955 270.703L790.693 269.101L790.427 267.499L790.241 266.406L790.154 265.898L789.876 264.296L789.591 262.694L789.302 261.092L789.006 259.49L788.705 257.889L788.639 257.546L788.396 256.287L788.082 254.685L787.76 253.083L787.433 251.482L787.099 249.88L787.037 249.59L786.757 248.278L786.408 246.676L786.052 245.074L785.689 243.473L785.435 242.376L785.318 241.871L784.939 240.269L784.552 238.667L784.157 237.066L783.834 235.778L783.754 235.464L783.342 233.862L782.922 232.26L782.493 230.658L782.232 229.703L782.054 229.057L781.606 227.455L781.149 225.853L780.683 224.251L780.63 224.072L780.206 222.65L779.72 221.048L779.223 219.446L779.028 218.829L778.716 217.844L778.197 216.242L777.669 214.641L777.427 213.921L777.128 213.039L776.576 211.437L776.014 209.835L775.825 209.307L775.438 208.234L774.851 206.632L774.252 205.03L774.223 204.954L773.639 203.428L773.014 201.826L772.621 200.838L772.376 200.225L771.724 198.623L771.059 197.021L771.019 196.928L770.379 195.419L769.685 193.818L769.418 193.209L768.977 192.216L768.254 190.614L767.816 189.66L767.516 189.012L766.762 187.41L766.214 186.266L765.993 185.809L765.208 184.207L764.612 183.014L764.407 182.605L763.588 181.003L763.011 179.893L762.753 179.402L761.9 177.8L761.409 176.891L761.031 176.198L760.143 174.596L759.807 174L759.236 172.994L758.312 171.393L758.205 171.21L757.368 169.791L756.603 168.516L756.406 168.189L755.423 166.587L755.002 165.911L754.421 164.986L753.4 163.385L752.355 161.782L751.798 160.94L751.291 160.18L750.207 158.578L750.196 158.563L749.1 156.977L748.595 156.257L747.971 155.375L746.993 154.011L746.821 153.773L745.647 152.171L745.391 151.826L744.451 150.569L743.789 149.697L743.231 148.968L742.187 147.62L741.989 147.366L740.723 145.764L740.586 145.593L739.432 144.162L738.984 143.614L738.116 142.561L737.382 141.679L736.777 140.959L735.78 139.786L735.413 139.357L734.178 137.933L734.023 137.755L732.609 136.153L732.577 136.118L731.168 134.552L730.975 134.34L729.701 132.95L729.373 132.596L728.208 131.348L727.771 130.885L726.689 129.746L726.17 129.205L725.144 128.145L724.568 127.555L723.572 126.543L722.966 125.933L721.974 124.941L721.364 124.338L720.348 123.339L719.762 122.769L718.696 121.737L718.161 121.224L717.017 120.136L716.559 119.703L715.311 118.534L714.957 118.205L713.578 116.932L713.355 116.728L711.818 115.33L711.754 115.272L710.152 113.836L710.031 113.729L708.55 112.42L708.216 112.127L706.948 111.022L706.375 110.525L705.346 109.641L704.507 108.923L703.745 108.277L702.612 107.321L702.143 106.929L700.691 105.72L700.541 105.596L698.939 104.278L698.743 104.118L697.338 102.976L696.769 102.516L695.736 101.687L694.769 100.914L694.134 100.41L692.744 99.3125L692.532 99.1466L690.93 97.8958L690.692 97.7108L689.329 96.6574L688.615 96.109L687.727 95.43L686.514 94.5072L686.125 94.2132L684.523 93.0071L684.388 92.9054L682.922 91.8123L682.236 91.3036L681.32 90.6269L680.062 89.7018L679.718 89.4505L678.116 88.2838L677.863 88.1001L676.514 87.1268L675.64 86.4983L674.913 85.9779L673.395 84.8965L673.311 84.8367L671.709 83.7051L671.126 83.2947L670.107 82.581L668.835 81.6929L668.506 81.4639L666.904 80.3548L666.522 80.0912L665.302 79.2534L664.186 78.4894L663.7 78.1582L662.098 77.0701L661.829 76.8876L660.497 75.9894L659.449 75.2858L658.895 74.9145L657.293 73.846L657.049 73.6841L655.691 72.7845L654.627 72.0823L654.09 71.7284L652.488 70.6783L652.185 70.4805L650.886 69.6347L649.721 68.8787L649.284 68.5962L647.682 67.5636L647.236 67.2769L646.081 66.537L644.73 65.6751L644.479 65.515L642.877 64.4993L642.203 64.0734L641.275 63.4888L639.673 62.4827L639.656 62.4716L638.072 61.4834L637.085 60.8698L636.47 60.4884L634.868 59.4986L634.493 59.268L633.266 58.5146L631.88 57.6663L631.665 57.5347L630.063 56.5611L629.243 56.0645L628.461 55.5921L626.859 54.6278L626.584 54.4627L625.257 53.6697L623.9 52.8609L623.656 52.7156L622.054 51.7677L621.191 51.2591L620.452 50.8246L618.85 49.8865L618.457 49.6574L617.249 48.9544L615.697 48.0556L615.647 48.0265L614.045 47.1054L612.907 46.4538L612.443 46.1888L610.841 45.2782L610.088 44.852L609.24 44.3731L607.638 43.4732L607.239 43.2503L606.036 42.5799L604.434 41.6912L604.357 41.6485L602.833 40.8099L601.438 40.0467L601.231 39.9333L599.629 39.064L598.482 38.4449L598.027 38.2L596.425 37.3429L595.486 36.8431L594.824 36.4918L593.222 35.6475L592.446 35.2413L591.62 34.8098L590.018 33.9787L589.36 33.6396L588.417 33.1549L586.815 32.3377L586.222 32.0378L585.213 31.5281L583.611 30.7253L583.029 30.436L582.009 29.9304L580.408 29.1427L579.774 28.8342L578.806 28.3631L577.204 27.5911L576.453 27.2324L575.602 26.8272L574.001 26.0715L573.057 25.6307L572.399 25.3239L570.797 24.5851L569.578 24.0289L569.195 23.8543L567.593 23.1332L566.008 22.4271L565.992 22.4197L564.39 21.7169L562.788 21.022L562.329 20.8253L561.186 20.3374L559.585 19.6619L558.531 19.2236L557.983 18.9959L556.381 18.3405L554.779 17.694L554.597 17.6218L553.177 17.059L551.576 16.4336L550.499 16.02L549.974 15.8185L548.372 15.215L546.77 14.6212L546.212 14.4182L545.168 14.0392L543.567 13.4684L541.965 12.9079L541.698 12.8164L540.363 12.3602L538.761 11.8236L537.16 11.298L536.899 11.2146L535.558 10.7857L533.956 10.285L532.354 9.79588L531.739 9.61287L530.752 9.3199L529.151 8.8567L527.549 8.40556L526.109 8.01109L525.947 7.96696L524.345 7.54265L522.744 7.131L521.142 6.73213L519.801 6.40932L519.54 6.3466L517.938 5.97578L516.336 5.6183L514.735 5.27434L513.133 4.94408L512.441 4.80754L511.531 4.62859L509.929 4.32774L508.328 4.04112L506.726 3.76881L505.124 3.51103L503.522 3.26796L503.085 3.20577L501.92 3.04057L500.319 2.82842L498.717 2.63139L497.115 2.44963L495.513 2.28328L493.912 2.13252L492.31 1.99748L490.708 1.87831L489.106 1.77513L487.504 1.6881L485.903 1.61733L485.509 1.60399L484.301 1.56316L482.699 1.5255L481.097 1.50441L479.496 1.50002L477.894 1.51241L476.292 1.54167L474.69 1.58794L474.284 1.60399L473.088 1.65154L471.487 1.7325L469.885 1.8308L468.283 1.94652L466.681 2.07976L465.08 2.23058L463.478 2.39903L461.876 2.58516L460.274 2.78905L458.672 3.0107L457.367 3.20577L457.071 3.25041L455.469 3.50899L453.867 3.78548L452.265 4.07997L450.663 4.39241L449.062 4.72279L448.672 4.80754L447.46 5.0724L445.858 5.44038L444.256 5.82634L442.655 6.23024L441.974 6.40932L441.053 6.65315L439.451 7.09474L437.849 7.55418L436.315 8.01109L436.247 8.03148L434.646 8.52849L433.044 9.04314L431.442 9.5753L431.333 9.61287L429.84 10.1271L428.239 10.6962L426.822 11.2146L426.637 11.2829L425.035 11.8888L423.433 12.5115L422.669 12.8164L421.831 13.1523L420.23 13.8108L418.788 14.4182L418.628 14.4859L417.026 15.1796L415.424 15.8891L415.135 16.02L413.823 16.6165L412.221 17.3598L411.667 17.6218L410.619 18.12L409.017 18.896L408.354 19.2236L407.415 19.6882L405.814 20.4958L405.171 20.8253L404.212 21.319L402.61 22.1568L402.101 22.4271L401.008 23.0097L399.407 23.8763L399.129 24.0289L397.805 24.7576L396.24 25.6307L396.203 25.6514L394.601 26.5595L393.429 27.2324L392.999 27.4795L391.398 28.4122L390.681 28.8342L389.796 29.3566L388.194 30.312L387.988 30.436L386.592 31.2789L385.347 32.0378L384.991 32.2555L383.389 33.2424L382.75 33.6396L381.787 34.2385L380.188 35.2413L380.185 35.2429L378.583 36.2562L377.662 36.8431L376.982 37.2768L375.38 38.3044L375.162 38.4449L373.778 39.3389L372.688 40.0467L372.176 40.379L370.575 41.4245L370.233 41.6485L368.973 42.475L367.795 43.2503L367.371 43.5293L365.769 44.5874L365.37 44.852L364.167 45.6486L362.955 46.4538L362.566 46.712L360.964 47.7773L360.547 48.0556L359.362 48.8439L358.142 49.6574L357.76 49.911L356.158 50.9783L355.738 51.2591L354.557 52.0452L353.332 52.8609L352.955 53.111L351.353 54.1753L350.921 54.4627L349.751 55.2376L348.502 56.0645L348.15 56.2972L346.548 57.3538L346.074 57.6663L344.946 58.4068L343.632 59.268L343.344 59.4558L341.742 60.5003L341.175 60.8698L340.141 61.5398L338.698 62.4716L338.539 62.574L336.937 63.6024L336.201 64.0734L335.335 64.6247L333.734 65.6406L333.679 65.6751L332.132 66.6495L331.13 67.2769L330.53 67.6513L328.928 68.6455L328.551 68.8787L327.326 69.6319L325.938 70.4805L325.725 70.6104L324.123 71.5803L323.289 72.0823L322.521 72.5418L320.919 73.4945L320.599 73.6841L319.318 74.4381L317.866 75.2858L317.716 75.3727L316.114 76.2977L315.084 76.8876L314.512 77.2134L312.91 78.1193L312.251 78.4894L311.309 79.0154L309.707 79.9018L309.362 80.0912L308.105 80.778L306.503 81.6444L306.413 81.6929L304.902 82.5002L303.398 83.2947L303.3 83.3463L301.698 84.1817L300.312 84.8965L300.096 85.0073L298.494 85.8222L297.151 86.4983L296.893 86.6272L295.291 87.4215L293.906 88.1001L293.689 88.2059L292.087 88.9796L290.574 89.7018L290.486 89.7436L288.884 90.4968L287.282 91.2405L287.145 91.3036L285.68 91.9734L284.078 92.6968L283.612 92.9054L282.477 93.4099L280.875 94.1132L279.968 94.5072L279.273 94.8067L277.671 95.4903L276.203 96.109L276.069 96.1646L274.468 96.8288L272.866 97.484L272.306 97.7108L271.264 98.1295L269.662 98.7657L268.267 99.3125L268.061 99.3931L266.459 100.011L264.857 100.62L264.074 100.914L263.255 101.22L261.653 101.812L260.052 102.395L259.715 102.516L258.45 102.969L256.848 103.535L255.246 104.093L255.173 104.118L253.645 104.642L252.043 105.183L250.441 105.717L250.433 105.72L248.839 106.243L247.237 106.761L245.636 107.271L245.477 107.321L244.034 107.774L242.432 108.27L240.83 108.759L240.286 108.923L239.229 109.24L237.627 109.715L236.025 110.183L234.838 110.525L234.423 110.644L232.821 111.098L231.22 111.546L229.618 111.988L229.11 112.127L228.016 112.424L226.414 112.853L224.813 113.276L223.211 113.694L223.077 113.729L221.609 114.106L220.007 114.512L218.405 114.912L216.804 115.308L216.71 115.33L215.202 115.697L213.6 116.082L211.998 116.461L210.397 116.836L209.981 116.932L208.795 117.206L207.193 117.57L205.591 117.931L203.989 118.286L202.862 118.534L202.388 118.638L200.786 118.984L199.184 119.327L197.582 119.665L195.981 120L195.322 120.136L194.379 120.33L192.777 120.656L191.175 120.979L189.573 121.298L187.972 121.613L187.335 121.737L186.37 121.925L184.768 122.233L183.166 122.539L181.564 122.84L179.963 123.139L178.881 123.339L178.361 123.435L176.759 123.728L175.157 124.017L173.556 124.304L171.954 124.589L170.352 124.871L169.949 124.941L168.75 125.15L167.148 125.426L165.547 125.701L163.945 125.973L162.343 126.242L160.741 126.51L160.545 126.543L159.14 126.776L157.538 127.039L155.936 127.301L154.334 127.561L152.732 127.819L151.131 128.075L150.696 128.145L149.529 128.33L147.927 128.583L146.325 128.835L144.724 129.086L143.122 129.335L141.52 129.583L140.461 129.746L139.918 129.83L138.316 130.076L136.715 130.321L135.113 130.564L133.511 130.808L131.909 131.05L130.308 131.292L129.933 131.348L128.706 131.533L127.104 131.773L125.502 132.013L123.9 132.253L122.299 132.492L120.697 132.732L119.236 132.95L119.095 132.971L117.493 133.21L115.892 133.449L114.29 133.688L112.688 133.927L111.086 134.167L109.484 134.407L108.521 134.552L107.883 134.648L106.281 134.889L104.679 135.13L103.077 135.372L101.476 135.616L99.8737 135.86L98.2719 136.105L97.9525 136.153L96.6702 136.35L95.0684 136.598L93.4666 136.846L91.8648 137.096L90.2631 137.347L88.6613 137.6L87.6817 137.755L87.0595 137.854L85.4577 138.111L83.8559 138.369L82.2541 138.629L80.6524 138.891L79.0506 139.155L77.8381 139.357L77.4488 139.422L75.847 139.691L74.2453 139.963L72.6435 140.238L71.0417 140.515L69.4399 140.795L68.5134 140.959L67.8381 141.079L66.2364 141.365L64.6346 141.655L63.0328 141.949L61.431 142.247L59.8292 142.548L59.763 142.561L58.2275 142.853L56.6257 143.163L55.0239 143.477L53.4221 143.795L51.8203 144.119L51.6066 144.162L50.2186 144.447L48.6168 144.781L47.015 145.119L45.4132 145.464L44.0393 145.764L43.8114 145.814L42.2097 146.171L40.6079 146.533L39.0061 146.903L37.4043 147.279L37.0376 147.366L35.8025 147.662L34.2008 148.053L32.599 148.451L30.9972 148.857L30.5673 148.968L29.3954 149.272L27.7936 149.695L26.1919 150.127L24.5901 150.569L22.9883 151.021L21.3865 151.482L19.7847 151.954L19.0613 152.171L18.183 152.438L16.5812 152.932L14.9794 153.439L13.9444 153.773L13.3776 153.958L11.7758 154.49L10.1741 155.036L9.20009 155.375L8.57228 155.596L6.9705 156.171L5.36872 156.761L4.79319 156.977L3.76694 157.367L2.16516 157.99L0.691852 158.578L0.563384 158.63M1440.56 916.038L1438.96 914.875L1438.6 914.618L1437.36 913.753L1436.28 913.017L1435.76 912.668L1434.16 911.62L1433.84 911.415L1432.55 910.609L1431.25 909.813L1430.95 909.631L1429.35 908.688L1428.52 908.211L1427.75 907.776L1426.15 906.895L1425.61 906.609L1424.55 906.045L1422.94 905.223L1422.51 905.008L1421.34 904.43L1419.74 903.663L1419.19 903.406L1418.14 902.924L1416.54 902.209L1415.6 901.804L1414.93 901.519L1413.33 900.853L1411.73 900.209L1411.71 900.202L1410.13 899.59L1408.53 898.991L1407.45 898.6L1406.93 898.413L1405.32 897.857L1403.72 897.319L1402.74 896.999L1402.12 896.801L1400.52 896.304L1398.92 895.823L1397.45 895.397L1397.32 895.359L1395.71 894.915L1394.11 894.487L1392.51 894.075L1391.38 893.795L1390.91 893.679L1389.31 893.3L1387.7 892.936L1386.1 892.587L1384.5 892.251L1384.22 892.193L1382.9 891.931L1381.3 891.626L1379.7 891.333L1378.09 891.054L1376.49 890.788L1375.25 890.592L1374.89 890.535L1373.29 890.296L1371.69 890.069L1370.09 889.855L1368.48 889.652L1366.88 889.461L1365.28 889.282L1363.68 889.115L1362.39 888.99L1362.08 888.959L1360.47 888.816L1358.87 888.684L1357.27 888.563L1355.67 888.453L1354.07 888.355L1352.47 888.267L1350.86 888.19L1349.26 888.125L1347.66 888.07L1346.06 888.026L1344.46 887.993L1342.85 887.972L1341.25 887.961L1339.65 887.961L1338.05 887.973L1336.45 887.996L1334.85 888.03L1333.24 888.075L1331.64 888.133L1330.04 888.201L1328.44 888.282L1326.84 888.375L1325.24 888.48L1323.63 888.597L1322.03 888.727L1320.43 888.87L1319.2 888.99L1318.83 889.026L1317.23 889.197L1315.62 889.382L1314.02 889.581L1312.42 889.795L1310.82 890.024L1309.22 890.268L1307.62 890.528L1307.25 890.592L1306.01 890.807L1304.41 891.104L1302.81 891.418L1301.21 891.751L1299.61 892.103L1299.21 892.193L1298.01 892.478L1296.4 892.875L1294.8 893.293L1293.2 893.734L1292.99 893.795L1291.6 894.204L1290 894.7L1288.39 895.223L1287.88 895.397L1286.79 895.778L1285.19 896.366L1283.59 896.984L1283.55 896.999L1281.99 897.645L1280.39 898.342L1279.82 898.6L1278.78 899.084L1277.18 899.87L1276.54 900.202L1275.58 900.709L1273.98 901.6L1273.63 901.804L1272.38 902.555L1271.03 903.406L1270.77 903.573L1269.17 904.668L1268.7 905.008L1267.57 905.845L1266.59 906.609L1265.97 907.114L1264.68 908.211L1264.37 908.488L1262.94 909.813L1262.77 909.984L1261.36 911.415L1261.16 911.621L1259.91 913.017L1259.56 913.428L1258.59 914.618L1257.96 915.434L1257.38 916.22L1256.36 917.683L1256.27 917.822L1255.25 919.424L1254.76 920.257L1254.32 921.025L1253.46 922.627L1253.16 923.246L1252.68 924.229L1251.97 925.831L1251.55 926.837L1251.32 927.433L1250.72 929.034L1250.18 930.636L1249.95 931.388L1249.7 932.238L1249.26 933.84L1248.87 935.441L1248.51 937.043L1248.35 937.877L1248.2 938.645L1247.93 940.247L1247.7 941.849L1247.5 943.45L1247.33 945.052L1247.2 946.654L1247.1 948.256L1247.02 949.857L1246.98 951.459L1246.96 953.061L1246.97 954.663L1247 956.265L1247.06 957.866L1247.14 959.468L1247.25 961.07L1247.38 962.672L1247.53 964.273L1247.7 965.875L1247.89 967.477L1248.11 969.079L1248.34 970.681L1248.35 970.744L1248.59 972.282L1248.87 973.884L1249.16 975.486L1249.47 977.088L1249.8 978.689L1249.95 979.389L1250.15 980.291L1250.52 981.893L1250.9 983.495L1251.3 985.097L1251.55 986.064L1251.72 986.698L1252.16 988.3L1252.61 989.902L1253.08 991.504L1253.16 991.738L1253.57 993.105L1254.08 994.707L1254.61 996.309L1254.76 996.759L1255.15 997.911L1255.71 999.513L1256.28 1001.11L1256.36 1001.32L1256.88 1002.72L1257.49 1004.32L1257.96 1005.52L1258.12 1005.92L1258.77 1007.52L1259.43 1009.12L1259.56 1009.43L1260.12 1010.73L1260.82 1012.33L1261.16 1013.1L1261.54 1013.93L1262.28 1015.53L1262.77 1016.57L1263.03 1017.13L1263.81 1018.73L1264.37 1019.86L1264.61 1020.34L1265.42 1021.94L1265.97 1022.99L1266.26 1023.54L1267.12 1025.14L1267.57 1025.97L1267.99 1026.74L1268.89 1028.34L1269.17 1028.84L1269.81 1029.95L1270.75 1031.55L1270.77 1031.59L1271.72 1033.15L1272.38 1034.22L1272.7 1034.75L1273.71 1036.35L1273.98 1036.77L1274.75 1037.96L1275.58 1039.22L1275.8 1039.56L1276.89 1041.16L1277.18 1041.59L1278 1042.76L1278.78 1043.88L1279.13 1044.36M1014.49 805.725L1016.09 805.757L1017.69 805.78L1019.3 805.792L1020.9 805.794L1022.5 805.787L1024.1 805.768L1025.7 805.739L1027.3 805.7L1027.39 805.697L1028.91 805.649L1030.51 805.587L1032.11 805.513L1033.71 805.428L1035.31 805.331L1036.91 805.222L1038.52 805.101L1040.12 804.968L1041.72 804.821L1043.32 804.662L1044.92 804.488L1046.53 804.302L1048.13 804.1L1048.16 804.096L1049.73 803.882L1051.33 803.649L1052.93 803.4L1054.53 803.135L1056.14 802.853L1057.74 802.554L1058.05 802.494L1059.34 802.234L1060.94 801.895L1062.54 801.536L1064.15 801.157L1065.21 800.892L1065.75 800.756L1067.35 800.329L1068.95 799.88L1070.55 799.406L1070.93 799.29L1072.15 798.903L1073.76 798.371L1075.36 797.812L1075.7 797.688L1076.96 797.217L1078.56 796.59L1079.79 796.087L1080.16 795.928L1081.76 795.225L1083.37 794.485L1084.97 793.694L1086.53 792.883L1086.57 792.862L1088.17 791.973L1089.36 791.281L1089.77 791.033L1091.38 790.03L1091.91 789.679L1092.98 788.962L1094.23 788.078L1094.58 787.824L1096.18 786.607L1096.35 786.476L1097.78 785.301L1098.28 784.874L1099.38 783.9L1100.07 783.272L1100.99 782.392L1101.71 781.671L1102.59 780.764L1103.24 780.069L1104.19 779L1104.65 778.467L1105.79 777.082L1105.96 776.865L1107.19 775.263L1107.39 774.983L1108.33 773.662L1109 772.675L1109.4 772.06L1110.4 770.458L1110.6 770.124L1111.33 768.856L1112.2 767.278L1112.21 767.255L1113.03 765.653L1113.8 764.065L1113.81 764.051L1114.53 762.449L1115.21 760.847L1115.4 760.387L1115.86 759.246L1116.46 757.644L1117 756.113L1117.03 756.042L1117.56 754.44L1118.06 752.839L1118.54 751.237L1118.61 750.989L1118.98 749.635L1119.39 748.033L1119.79 746.431L1120.15 744.83L1120.21 744.58L1120.5 743.228L1120.82 741.626L1121.12 740.024L1121.4 738.423L1121.66 736.821L1121.81 735.825L1121.9 735.219L1122.12 733.617L1122.33 732.015L1122.52 730.414L1122.69 728.812L1122.85 727.21L1123 725.608L1123.13 724.007L1123.24 722.405L1123.34 720.803L1123.41 719.553L1123.43 719.201L1123.5 717.599L1123.57 715.998L1123.62 714.396L1123.65 712.794L1123.68 711.192L1123.69 709.591L1123.69 707.989L1123.68 706.387L1123.66 704.785L1123.63 703.183L1123.58 701.582L1123.53 699.98L1123.46 698.378L1123.41 697.336L1123.38 696.776L1123.3 695.174L1123.2 693.573L1123.08 691.971L1122.96 690.369L1122.83 688.767L1122.69 687.166L1122.53 685.564L1122.37 683.962L1122.19 682.36L1122 680.758L1121.81 679.239L1121.8 679.157L1121.59 677.555L1121.36 675.953L1121.12 674.351L1120.87 672.75L1120.61 671.148L1120.34 669.546L1120.21 668.826L1120.05 667.944L1119.75 666.342L1119.43 664.741L1119.1 663.139L1118.75 661.537L1118.61 660.87L1118.39 659.935L1118.02 658.334L1117.63 656.732L1117.22 655.13L1117 654.308L1116.8 653.528L1116.35 651.926L1115.89 650.325L1115.42 648.723L1115.4 648.678L1114.92 647.121L1114.4 645.519L1113.86 643.918L1113.8 643.745L1113.3 642.316L1112.71 640.714L1112.2 639.346L1112.11 639.112L1111.48 637.51L1110.82 635.909L1110.6 635.381L1110.14 634.307L1109.42 632.705L1109 631.77L1108.68 631.103L1107.91 629.502L1107.39 628.461L1107.11 627.9L1106.27 626.298L1105.79 625.411L1105.4 624.696L1104.49 623.094L1104.19 622.585L1103.54 621.493L1102.59 619.953L1102.55 619.891L1101.51 618.289L1100.99 617.502L1100.43 616.687L1099.38 615.201L1099.3 615.086L1098.12 613.484L1097.78 613.045L1096.88 611.882L1096.18 611.014L1095.58 610.28L1094.58 609.096L1094.22 608.678L1092.98 607.282L1092.79 607.077L1091.38 605.565L1091.29 605.475L1089.77 603.936L1089.71 603.873L1088.17 602.39L1088.05 602.271L1086.57 600.919L1086.29 600.67L1084.97 599.517L1084.44 599.068L1083.37 598.18L1082.48 597.466L1081.76 596.903L1080.41 595.864L1080.16 595.681L1078.56 594.514L1078.21 594.262L1076.96 593.397L1075.87 592.661L1075.36 592.325L1073.76 591.296L1073.38 591.059L1072.15 590.312L1070.72 589.457L1070.55 589.362L1068.95 588.454L1067.86 587.855L1067.35 587.578L1065.75 586.736L1064.8 586.253L1064.15 585.925L1062.54 585.145L1061.5 584.652L1060.94 584.392L1059.34 583.668L1057.93 583.05L1057.74 582.967L1056.14 582.294L1054.53 581.642L1054.05 581.448L1052.93 581.015L1051.33 580.408L1049.8 579.846L1049.73 579.82L1048.13 579.256L1046.53 578.709L1045.13 578.245L1044.92 578.179L1043.32 577.67L1041.72 577.175L1040.12 576.695L1039.94 576.643L1038.52 576.235L1036.91 575.788L1035.31 575.355L1034.12 575.041L1033.71 574.936L1032.11 574.533L1030.51 574.141L1028.91 573.762L1027.51 573.439L1027.3 573.394L1025.7 573.041L1024.1 572.698L1022.5 572.366L1020.9 572.044L1019.84 571.837L1019.3 571.733L1017.69 571.434L1016.09 571.145L1014.49 570.864L1012.89 570.592L1011.29 570.329L1010.7 570.236L1009.68 570.076L1008.08 569.833L1006.48 569.598L1004.88 569.37L1003.28 569.151L1001.68 568.938L1000.07 568.734L999.264 568.634L998.472 568.537L996.87 568.349L995.269 568.168L993.667 567.994L992.065 567.826L990.463 567.665L988.861 567.511L987.26 567.363L985.658 567.221L984.056 567.085L983.4 567.032L982.454 566.956L980.853 566.834L979.251 566.718L977.649 566.608L976.047 566.503L974.445 566.404L972.844 566.311L971.242 566.223L969.64 566.14L968.038 566.064L966.437 565.992L964.835 565.926L963.233 565.865L961.631 565.809L960.029 565.759L958.428 565.713L956.826 565.673L955.224 565.638L953.622 565.608L952.021 565.583L950.419 565.563L948.817 565.548L947.215 565.538L945.613 565.533L944.012 565.534L942.41 565.539L940.808 565.549L939.206 565.564L937.605 565.584L936.003 565.609L934.401 565.639L932.799 565.674L931.197 565.714L929.596 565.759L927.994 565.81L926.392 565.865L924.79 565.926L923.189 565.992L921.587 566.063L919.985 566.139L918.383 566.221L916.781 566.308L915.18 566.4L913.578 566.499L911.976 566.602L910.374 566.712L908.772 566.827L907.171 566.948L906.105 567.032L905.569 567.076L903.967 567.211L902.365 567.352L900.764 567.499L899.162 567.654L897.56 567.815L895.958 567.983L894.356 568.158L892.755 568.34L891.153 568.53L890.303 568.634L889.551 568.729L887.949 568.938L886.348 569.155L884.746 569.381L883.144 569.616L881.542 569.86L879.94 570.115L879.199 570.236L878.339 570.382L876.737 570.662L875.135 570.954L873.533 571.258L871.932 571.576L870.657 571.837L870.33 571.908L868.728 572.26L867.126 572.628L865.524 573.014L863.923 573.418L863.841 573.439L862.321 573.851L860.719 574.306L859.117 574.787L858.301 575.041L857.516 575.301L855.914 575.851L854.312 576.436L853.765 576.643L852.71 577.07L851.108 577.756L850.029 578.245L849.507 578.5L847.905 579.32L846.94 579.846L846.303 580.225L844.701 581.237L844.382 581.448L843.1 582.388L842.253 583.05L841.498 583.709L840.481 584.652L839.896 585.263L838.999 586.253L838.294 587.144L837.759 587.855L836.722 589.457L836.692 589.509L835.842 591.059L835.112 592.661L835.091 592.713L834.489 594.262L833.971 595.864L833.542 597.466L833.489 597.696L833.18 599.068L832.882 600.67L832.641 602.271L832.449 603.873L832.3 605.475L832.189 607.077L832.111 608.678L832.063 610.28L832.042 611.882L832.046 613.484L832.072 615.086L832.119 616.687L832.184 618.289L832.267 619.891L832.366 621.493L832.481 623.094L832.61 624.696L832.752 626.298L832.907 627.9L833.074 629.502L833.253 631.103L833.444 632.705L833.489 633.061L833.643 634.307L833.851 635.909L834.07 637.51L834.299 639.112L834.537 640.714L834.785 642.316L835.042 643.918L835.091 644.209L835.305 645.519L835.577 647.121L835.858 648.723L836.148 650.325L836.446 651.926L836.692 653.208L836.753 653.528L837.065 655.13L837.387 656.732L837.717 658.334L838.056 659.935L838.294 661.028L838.403 661.537L838.757 663.139L839.119 664.741L839.491 666.342L839.872 667.944L839.896 668.044L840.259 669.546L840.655 671.148L841.06 672.75L841.476 674.351L841.498 674.433L841.898 675.953L842.33 677.555L842.772 679.157L843.1 680.314L843.224 680.758L843.684 682.36L844.154 683.962L844.636 685.564L844.701 685.776L845.126 687.166L845.627 688.767L846.14 690.369L846.303 690.865L846.663 691.971L847.197 693.573L847.744 695.174L847.905 695.633L848.302 696.776L848.872 698.378L849.456 699.98L849.507 700.115L850.051 701.582L850.66 703.183L851.108 704.334L851.283 704.785L851.92 706.387L852.572 707.989L852.71 708.321L853.237 709.591L853.919 711.192L854.312 712.093L854.617 712.794L855.331 714.396L855.914 715.672L856.062 715.998L856.81 717.599L857.516 719.072L857.578 719.201L858.362 720.803L859.117 722.304L859.168 722.405L859.992 724.007L860.719 725.382L860.839 725.608L861.706 727.21L862.321 728.316L862.597 728.812L863.51 730.414L863.923 731.12L864.448 732.015L865.411 733.617L865.524 733.802L866.4 735.219L867.126 736.365L867.416 736.821L868.462 738.423L868.728 738.821L869.536 740.024L870.33 741.175L870.642 741.626L871.78 743.228L871.932 743.436L872.952 744.83L873.533 745.603L874.16 746.431L875.135 747.689L875.404 748.033L876.688 749.635L876.737 749.695L878.012 751.237L878.339 751.622L879.379 752.839L879.94 753.479L880.791 754.44L881.542 755.268L882.251 756.042L883.144 756.993L883.761 757.644L884.746 758.658L885.324 759.246L886.348 760.263L886.942 760.847L887.949 761.814L888.62 762.449L889.551 763.312L890.36 764.051L891.153 764.759L892.167 765.653L892.755 766.159L894.045 767.255L894.356 767.514L895.958 768.825L895.998 768.856L897.56 770.091L898.033 770.458L899.162 771.317L900.154 772.06L900.764 772.507L902.365 773.661L903.967 774.775L904.682 775.263L905.569 775.857L907.104 776.865L907.171 776.908L908.772 777.924L909.645 778.467L910.374 778.912L911.976 779.871L912.313 780.069L913.578 780.799L915.12 781.671L915.18 781.704L916.781 782.578L918.083 783.272L918.383 783.43L919.985 784.254L921.215 784.874L921.587 785.058L923.189 785.836L924.537 786.476L924.79 786.594L926.392 787.328L927.994 788.044L928.07 788.078L929.596 788.736L931.197 789.412L931.846 789.679L932.799 790.067L934.401 790.703L935.893 791.281L936.003 791.323L937.605 791.922L939.206 792.506L940.264 792.883L940.808 793.074L942.41 793.623L944.012 794.159L945.01 794.485L945.613 794.679L947.215 795.182L948.817 795.672L950.207 796.087L950.419 796.149L952.021 796.608L953.622 797.056L955.224 797.491L955.972 797.688L956.826 797.911L958.428 798.318L960.029 798.713L961.631 799.097L962.462 799.29L963.233 799.467L964.835 799.825L966.437 800.171L968.038 800.507L969.64 800.832L969.947 800.892L971.242 801.143L972.844 801.444L974.445 801.734L976.047 802.014L977.649 802.284L978.944 802.494L979.251 802.543L980.853 802.79L982.454 803.027L984.056 803.255L985.658 803.473L987.26 803.681L988.861 803.879L990.463 804.068L990.714 804.096L992.065 804.245L993.667 804.413L995.269 804.571L996.87 804.72L998.472 804.859L1000.07 804.989L1001.68 805.109L1003.28 805.22L1004.88 805.321L1006.48 805.413L1008.08 805.494L1009.68 805.567L1011.29 805.629L1012.89 805.682L1013.46 805.697L1014.49 805.725Z" stroke="#EFEEEC" stroke-width="3"/>
</svg>
