<svg preserveAspectRatio="none" overflow="visible" style="display: block;" width="1440" height="1440" viewBox="0 0 1440 1440" fill="none" xmlns="http://www.w3.org/2000/svg">
<g id="Clip path group">
<mask id="mask0_0_112" style="mask-type:luminance" maskUnits="userSpaceOnUse" x="0" y="0" width="1440" height="1440">
<g id="p314f5dee4d">
<path id="Vector" d="M1440 0H0V1440H1440V0Z" fill="white"/>
</g>
</mask>
<g mask="url(#mask0_0_112)">
<path id="Vector_2" d="M818.475 1440L819.433 1422.38L820.637 1407.96L822.134 1395.15L823.87 1383.94L825.758 1374.33L828.12 1364.68L830.517 1356.71L833.431 1348.7L836.218 1342.29L839.516 1335.88L842.536 1330.87L845.74 1326.26L849.611 1321.47L853.749 1317.09L857.73 1313.46L861.773 1310.26L866.563 1306.98L871.951 1303.85L877.775 1301L884.182 1298.38L891.851 1295.84L898.598 1294.03L906.607 1292.29L916.218 1290.71L925.829 1289.57L937.041 1288.69L949.855 1288.2L962.67 1288.18L975.484 1288.57L988.958 1289.43L1001.11 1290.6L1013.93 1292.26L1025.74 1294.24L1036.35 1296.42L1046.89 1299.04L1055.57 1301.59L1065.18 1304.89L1073.19 1308.1L1081.33 1311.86L1089.21 1316.05L1095.62 1319.92L1102.58 1324.67L1108.82 1329.48L1114.84 1334.65L1121.25 1340.82L1127.65 1347.72L1134.06 1355.42L1140.47 1363.93L1146.87 1373.27L1153.63 1383.94L1161.29 1396.89L1172.5 1416.9L1185.32 1440M1440 1147.18L1425.58 1151.57L1414.37 1154.56L1403.16 1157.11L1391.95 1159.19L1380.73 1160.76L1371.12 1161.69L1361.51 1162.21L1351.9 1162.3L1342.29 1161.92L1334.28 1161.21L1326.27 1160.12L1318.26 1158.58L1310.26 1156.54L1303.85 1154.49L1296.68 1151.68L1291.03 1149.02L1286.23 1146.4L1281.42 1143.38L1276.62 1139.9L1271.57 1135.66L1266.7 1130.86L1262.2 1125.65L1258.91 1121.25L1255.76 1116.44L1252.16 1110.03L1249.12 1103.63L1246.18 1096.15L1243.94 1089.21L1241.86 1081.2L1240.25 1073.19L1239.06 1065.18L1238.18 1055.91L1237.8 1047.56L1237.84 1037.95L1238.38 1028.34L1239.46 1018.73L1240.78 1010.72L1242.52 1002.71L1244.74 994.705L1247.51 986.696L1250.17 980.289L1253.3 973.882L1256.97 967.475L1260.6 962.021L1265.01 956.263L1269.21 951.457L1273.93 946.652L1279.82 941.343L1286.23 936.202L1294.24 930.422L1303.85 924.077L1337.49 902.415L1345.5 896.424L1352.46 890.59L1358.31 885.043L1363.57 879.377L1367.92 874.016L1372.05 868.165L1374.99 863.359L1378.36 856.952L1381.14 850.545L1383.38 844.138L1385.12 837.731L1386.39 831.324L1387.21 824.917L1387.57 818.509L1387.47 812.102L1386.89 805.695L1385.8 799.288L1384.61 794.483L1383.07 789.677L1380.73 783.989L1378.74 780.067L1375.8 775.261L1372.15 770.456L1369.22 767.253L1365.77 764.049L1361.51 760.778L1356.39 757.642L1351.9 755.48L1347.1 753.679L1342.29 752.341L1337.49 751.416L1332.68 750.871L1326.27 750.681L1319.87 751.058L1313.46 751.976L1307.05 753.405L1300.65 755.333L1294.24 757.745L1287.43 760.845L1281.39 764.049L1275.02 767.896L1268.61 772.235L1262.2 777.049L1254.19 783.709L1245.92 791.279L1236.57 800.548L1225.36 812.316L1208.75 829.722L1200.49 837.731L1193.26 844.138L1186.92 849.236L1180.51 853.871L1173.19 858.554L1167.52 861.758L1161.15 864.961L1153.28 868.4L1145.27 871.383L1137.26 873.923L1127.65 876.472L1118.04 878.563L1106.83 880.513L1095.62 882.018L1082.8 883.269L1069.99 884.076L1055.57 884.505L1041.16 884.447L1026.74 883.901L1013.93 882.985L1001.11 881.625L989.9 880.026L978.687 877.987L969.077 875.835L959.466 873.244L951.457 870.695L943.448 867.727L935.439 864.27L929.032 861.088L921.766 856.952L916.218 853.355L909.811 848.639L904.439 844.138L899.347 839.333L894.805 834.527L890.59 829.559L885.784 823.192L880.979 815.934L876.881 808.899L872.765 800.89L869.134 792.881L865.303 783.27L861.758 773.089L858.511 762.447L855.101 749.633L851.775 735.217L848.55 719.199L844.855 698.376L832.539 626.296L829.064 610.278L825.849 597.464L822.626 586.251L818.936 575.039L815.306 565.365L811.25 555.818L806.619 546.207L802.283 538.198L797.464 530.189L792.109 522.18L786.17 514.171L779.599 506.162L772.355 498.154L765.651 491.352L757.532 483.737L748.031 475.51L738.362 467.72L727.208 459.284L714.352 450.1L697.832 438.888L677.553 425.714L653.526 410.656L631.101 397.083L611.88 385.934L595.862 377.126L581.446 369.69L568.632 363.56L555.818 357.955L544.605 353.533L533.393 349.601L523.782 346.65L514.171 344.105L504.561 341.988L494.95 340.315L485.339 339.104L475.729 338.374L466.118 338.144L456.507 338.435L448.498 339.09L440.489 340.134L432.481 341.581L424.472 343.445L415.683 345.984L408.454 348.469L400.445 351.648L391.78 355.595L384.427 359.352L376.418 363.859L366.486 370.011L356.976 376.418L345.854 384.427L328.953 397.241L303.548 416.463L291.524 424.983L280.18 432.481L269.099 439.227L258.177 445.295L248.276 450.296L237.063 455.404L225.851 459.955L214.639 463.984L202.795 467.72L191.113 470.923L179.399 473.696L166.585 476.268L153.771 478.398L140.957 480.116L126.541 481.588L112.125 482.594L97.7086 483.142L83.2926 483.227L68.8766 482.826L56.0623 482.03L43.2481 480.772L32.0356 479.243L20.8232 477.256L11.2125 475.132L1.47974 472.525L2.74658e-05 472.084" stroke="#1F1E1D" stroke-width="3"/>
</g>
</g>
</svg>
