<svg preserveAspectRatio="none" overflow="visible" style="display: block;" width="1440" height="1440" viewBox="0 0 1440 1440" fill="none" xmlns="http://www.w3.org/2000/svg">
<g id="Clip path group">
<mask id="mask0_0_104" style="mask-type:luminance" maskUnits="userSpaceOnUse" x="0" y="0" width="1440" height="1440">
<g id="p314f5dee4d">
<path id="Vector" d="M1440 0H0V1440H1440V0Z" fill="white"/>
</g>
</mask>
<g mask="url(#mask0_0_104)">
<path id="Vector_2" d="M1250.66 2.74658e-05L1262.2 16.7883L1271.11 30.4338L1281 46.4516L1289.43 61.0947L1296.14 73.6819L1301.62 84.8944L1306.57 96.1068L1310.33 105.717L1313.63 115.328L1316.44 124.939L1318.72 134.55L1320.48 144.16L1321.53 152.169L1322.21 160.178L1322.5 168.187L1322.4 176.196L1321.92 184.205L1321.03 192.214L1319.73 200.223L1318 208.231L1315.81 216.24L1313.12 224.249L1309.89 232.258L1306.84 238.665L1303.34 245.072L1299.04 251.829L1294.56 257.887L1290.46 262.692L1285.75 267.497L1281.42 271.337L1276.62 275.026L1271.81 278.183L1267.01 280.862L1261.23 283.515L1255.8 285.499L1249.39 287.26L1242.98 288.457L1236.57 289.141L1230.17 289.362L1223.76 289.163L1217.35 288.587L1209.34 287.395L1201.33 285.748L1191.72 283.273L1180.51 279.844L1167.7 275.421L1148.48 268.237L1110.03 253.771L1089.69 246.674L1069.87 240.267L1049.17 234.089L1028.34 228.324L1001.11 221.268L921.023 200.839L900.2 194.855L881.556 189.01L866.563 183.904L850.036 177.798L834.527 171.571L819.336 164.983L804.093 157.89L788.076 149.943L770.456 140.693L748.031 128.355L675.568 88.0979L653.526 76.6439L624.694 62.1972L595.862 47.6185L581.446 39.8338L570.234 33.3028L560.623 27.2091L551.495 20.8232L544.605 15.4822L537.782 9.61071L531.791 3.81615L528.218 2.74658e-05" stroke="#1F1E1D" stroke-width="3"/>
</g>
</g>
</svg>
