<svg preserveAspectRatio="none" overflow="visible" style="display: block;" width="13.7573" height="14.1016" viewBox="0 0 13.7573 14.1016" fill="none" xmlns="http://www.w3.org/2000/svg">
<g id="&#60;Group&#62;">
<path id="&#60;Path&#62;" d="M7.02364 2.08494C8.95575 2.08494 10.62 3.17913 11.4426 4.79158C11.5191 4.92595 11.6339 5.00273 11.7869 5.00273H13.7573C12.8391 1.98898 9.95051 -0.18015 6.60279 0.0118087C3.00638 0.222963 0.0986482 3.2367 0.00299909 6.84552C-0.11178 10.8383 3.08289 14.1016 7.02364 14.1016C10.1801 14.1016 12.8582 12.0284 13.7382 9.14902H11.7678C11.6148 9.14902 11.5 9.2258 11.4235 9.36017C10.5818 10.9918 8.84094 12.1052 6.85144 12.0284C4.3263 11.9516 2.24117 9.89767 2.08813 7.38301C1.89683 4.48444 4.19242 2.08494 7.02364 2.08494Z" fill="#EFEEEC"/>
</g>
</svg>
